<mxfile host="app.diagrams.net" agent="Mozilla/5.0 (Windows NT 10.0; Win64; x64) AppleWebKit/537.36 (KHTML, like Gecko) Chrome/130.0.0.0 Safari/537.36 Edg/130.0.0.0" version="24.8.6">
  <diagram name="Страница — 1" id="73k5Mq2ZNnZUr7tYvHGZ">
    <mxGraphModel dx="1426" dy="801" grid="1" gridSize="10" guides="1" tooltips="1" connect="1" arrows="1" fold="1" page="1" pageScale="1" pageWidth="827" pageHeight="1169" math="1" shadow="0">
      <root>
        <mxCell id="0" />
        <mxCell id="1" parent="0" />
        <mxCell id="aC_RMeTBaJf2gsMPciuQ-7" value="&lt;span style=&quot;color: rgb(227, 234, 242); font-family: __JetBrains_Mono_3c557b, __JetBrains_Mono_Fallback_3c557b; font-size: 14.4px; text-align: left; white-space-collapse: preserve; background-color: rgb(9, 9, 11);&quot;&gt;$$f = -e^{x \sqrt{|y|}} + z$$&lt;/span&gt;" style="text;html=1;align=center;verticalAlign=middle;resizable=0;points=[];autosize=1;strokeColor=none;fillColor=none;" vertex="1" parent="1">
          <mxGeometry x="70" y="120" width="190" height="30" as="geometry" />
        </mxCell>
        <mxCell id="aC_RMeTBaJf2gsMPciuQ-18" style="edgeStyle=orthogonalEdgeStyle;rounded=0;orthogonalLoop=1;jettySize=auto;html=1;exitX=0.5;exitY=1;exitDx=0;exitDy=0;entryX=0.5;entryY=0;entryDx=0;entryDy=0;" edge="1" parent="1" source="aC_RMeTBaJf2gsMPciuQ-8" target="aC_RMeTBaJf2gsMPciuQ-9">
          <mxGeometry relative="1" as="geometry" />
        </mxCell>
        <mxCell id="aC_RMeTBaJf2gsMPciuQ-8" value="Начало" style="rounded=1;whiteSpace=wrap;html=1;arcSize=50;" vertex="1" parent="1">
          <mxGeometry x="344" y="110" width="156" height="60" as="geometry" />
        </mxCell>
        <mxCell id="aC_RMeTBaJf2gsMPciuQ-19" style="edgeStyle=orthogonalEdgeStyle;rounded=0;orthogonalLoop=1;jettySize=auto;html=1;exitX=0.5;exitY=1;exitDx=0;exitDy=0;entryX=0.5;entryY=0;entryDx=0;entryDy=0;" edge="1" parent="1" source="aC_RMeTBaJf2gsMPciuQ-9" target="aC_RMeTBaJf2gsMPciuQ-10">
          <mxGeometry relative="1" as="geometry" />
        </mxCell>
        <mxCell id="aC_RMeTBaJf2gsMPciuQ-9" value="Ввод x, y, z" style="shape=parallelogram;html=1;strokeWidth=2;perimeter=parallelogramPerimeter;whiteSpace=wrap;rounded=1;arcSize=12;size=0.23;" vertex="1" parent="1">
          <mxGeometry x="344" y="190" width="156" height="60" as="geometry" />
        </mxCell>
        <mxCell id="aC_RMeTBaJf2gsMPciuQ-20" style="edgeStyle=orthogonalEdgeStyle;rounded=0;orthogonalLoop=1;jettySize=auto;html=1;exitX=0.5;exitY=1;exitDx=0;exitDy=0;entryX=0.5;entryY=0;entryDx=0;entryDy=0;" edge="1" parent="1" source="aC_RMeTBaJf2gsMPciuQ-10" target="aC_RMeTBaJf2gsMPciuQ-14">
          <mxGeometry relative="1" as="geometry" />
        </mxCell>
        <mxCell id="aC_RMeTBaJf2gsMPciuQ-10" value="$$f = -e^{x \sqrt{|y|}} + z$$" style="rounded=0;whiteSpace=wrap;html=1;" vertex="1" parent="1">
          <mxGeometry x="340" y="270" width="160" height="60" as="geometry" />
        </mxCell>
        <mxCell id="aC_RMeTBaJf2gsMPciuQ-23" style="edgeStyle=orthogonalEdgeStyle;rounded=0;orthogonalLoop=1;jettySize=auto;html=1;exitX=0.5;exitY=1;exitDx=0;exitDy=0;entryX=0.5;entryY=0;entryDx=0;entryDy=0;" edge="1" parent="1" source="aC_RMeTBaJf2gsMPciuQ-12" target="aC_RMeTBaJf2gsMPciuQ-16">
          <mxGeometry relative="1" as="geometry" />
        </mxCell>
        <mxCell id="aC_RMeTBaJf2gsMPciuQ-12" value="$$ U = x + y + e^{-w \cdot v \cdot f} $$" style="rounded=0;whiteSpace=wrap;html=1;" vertex="1" parent="1">
          <mxGeometry x="340" y="510" width="160" height="60" as="geometry" />
        </mxCell>
        <mxCell id="aC_RMeTBaJf2gsMPciuQ-22" style="edgeStyle=orthogonalEdgeStyle;rounded=0;orthogonalLoop=1;jettySize=auto;html=1;exitX=0.5;exitY=1;exitDx=0;exitDy=0;entryX=0.5;entryY=0;entryDx=0;entryDy=0;" edge="1" parent="1" source="aC_RMeTBaJf2gsMPciuQ-13" target="aC_RMeTBaJf2gsMPciuQ-12">
          <mxGeometry relative="1" as="geometry" />
        </mxCell>
        <mxCell id="aC_RMeTBaJf2gsMPciuQ-13" value="$$ w = f + v + \log_{10}(x \cdot y \cdot z) $$" style="rounded=0;whiteSpace=wrap;html=1;" vertex="1" parent="1">
          <mxGeometry x="340" y="430" width="160" height="60" as="geometry" />
        </mxCell>
        <mxCell id="aC_RMeTBaJf2gsMPciuQ-21" style="edgeStyle=orthogonalEdgeStyle;rounded=0;orthogonalLoop=1;jettySize=auto;html=1;exitX=0.5;exitY=1;exitDx=0;exitDy=0;entryX=0.5;entryY=0;entryDx=0;entryDy=0;" edge="1" parent="1" source="aC_RMeTBaJf2gsMPciuQ-14" target="aC_RMeTBaJf2gsMPciuQ-13">
          <mxGeometry relative="1" as="geometry" />
        </mxCell>
        <mxCell id="aC_RMeTBaJf2gsMPciuQ-14" value="&lt;font style=&quot;font-size: 12px;&quot;&gt;$$ v = \left| \sin(\cos(f))^2 + x \right|^{\frac{1}{3}} $$&lt;/font&gt;" style="rounded=0;whiteSpace=wrap;html=1;" vertex="1" parent="1">
          <mxGeometry x="340" y="350" width="160" height="60" as="geometry" />
        </mxCell>
        <mxCell id="aC_RMeTBaJf2gsMPciuQ-24" style="edgeStyle=orthogonalEdgeStyle;rounded=0;orthogonalLoop=1;jettySize=auto;html=1;exitX=0.5;exitY=1;exitDx=0;exitDy=0;entryX=0.5;entryY=0;entryDx=0;entryDy=0;" edge="1" parent="1" source="aC_RMeTBaJf2gsMPciuQ-16" target="aC_RMeTBaJf2gsMPciuQ-17">
          <mxGeometry relative="1" as="geometry" />
        </mxCell>
        <mxCell id="aC_RMeTBaJf2gsMPciuQ-16" value="Вывод U" style="shape=parallelogram;html=1;strokeWidth=2;perimeter=parallelogramPerimeter;whiteSpace=wrap;rounded=1;arcSize=12;size=0.23;" vertex="1" parent="1">
          <mxGeometry x="340" y="590" width="156" height="60" as="geometry" />
        </mxCell>
        <mxCell id="aC_RMeTBaJf2gsMPciuQ-17" value="Конец" style="rounded=1;whiteSpace=wrap;html=1;arcSize=50;" vertex="1" parent="1">
          <mxGeometry x="340" y="670" width="156" height="60" as="geometry" />
        </mxCell>
      </root>
    </mxGraphModel>
  </diagram>
</mxfile>
